<svg width="116" height="48" viewBox="0 0 116 48" fill="none" xmlns="http://www.w3.org/2000/svg">
<path d="M41.2539 26.6844C41.1575 27.2961 41.0173 27.9 40.8345 28.4916C40.7213 28.5792 36.7842 32.6537 36.7842 32.6537L28.9827 34.6362L28.0848 33.6663C28.1894 33.6157 28.2898 33.5474 28.3817 33.499C28.6459 33.3444 28.893 33.1935 29.1401 33.0261C29.6204 32.6978 30.0832 32.3443 30.5265 31.9673C31.4068 31.2088 32.198 30.3526 32.8849 29.4152C32.8849 29.4152 33.723 29.1973 33.9195 29.1475C34.3171 29.0185 34.7036 28.8575 35.0752 28.6661C35.4462 28.4957 35.8021 28.2942 36.1391 28.0637L37.1068 27.3146C37.1068 27.3146 37.8815 26.5235 37.9449 26.4323L38.3344 25.9595L38.6741 25.4489C38.6741 25.4489 38.9418 25.0309 38.9795 24.9348L39.2644 24.4079C39.3108 24.3214 39.3515 24.232 39.3861 24.1401L39.5079 23.8596L39.745 23.312L39.4602 23.8389L39.3178 24.0939C39.2758 24.1779 39.2174 24.2655 39.1711 24.3488L38.8407 24.838C38.7816 24.9256 38.4889 25.3151 38.4889 25.3151L38.1371 25.7501L37.7184 26.1681C37.6558 26.2436 36.839 26.9044 36.839 26.9044L35.867 27.5154C35.5174 27.6976 35.1563 27.8569 34.7861 27.9925C34.4073 28.1215 34.0214 28.2289 33.6304 28.3143C34.6067 26.7365 35.3143 25.0076 35.7246 23.1981C35.8585 22.6505 35.9546 22.0815 36.055 21.5247C36.1056 21.2477 36.2131 20.1404 36.2131 20.1404C36.3801 19.9865 36.5302 19.8154 36.661 19.6298C36.7949 19.4497 36.9252 19.266 37.0427 19.0737C37.2681 18.6885 37.4573 18.2833 37.6081 17.8632C37.755 17.4433 37.8549 17.0084 37.9057 16.5665C37.9335 16.3486 37.9504 16.1295 37.9563 15.91C37.9684 15.6728 37.9563 15.492 37.9563 15.257C37.9499 15.472 37.9275 15.6862 37.8893 15.8979C37.8596 16.1114 37.8163 16.3228 37.7597 16.5309C37.6643 16.9399 37.5236 17.3371 37.3403 17.7151C37.1515 18.0879 36.9264 18.4411 36.6681 18.7697C36.5541 18.9179 36.4294 19.0576 36.295 19.1876V18.1302C36.295 17.5698 36.2658 17.0094 36.2409 16.4568C36.1734 14.2181 35.893 11.9909 35.4035 9.80532C35.7968 12.0139 35.969 14.2561 35.9176 16.4988C35.9176 17.0592 35.9176 17.6068 35.8777 18.1722L35.8322 19.0089L35.7474 19.8456C35.7474 19.8456 35.5594 21.2092 35.5046 21.4677C35.3857 22.0117 35.2789 22.5472 35.1194 23.0699C35.0731 23.2038 35.0353 23.3547 34.9898 23.4879C34.9898 23.4879 34.7384 22.3037 34.5497 21.7561C34.5034 21.6137 34.2983 21.0868 34.235 20.9572L33.8497 20.1162C33.7237 19.8583 33.5839 19.6072 33.431 19.3642C33.2801 19.1129 33.1291 18.8658 32.9824 18.6365C33.1163 18.8871 33.2544 19.135 33.3719 19.3977C33.4939 19.6509 33.6016 19.9107 33.6945 20.176L33.9793 20.9871C34.0256 21.1209 34.1638 21.6728 34.1887 21.8238C34.3141 22.3742 34.3953 22.9338 34.4315 23.4971C34.4315 23.7691 34.4564 24.0618 34.4607 24.3338C34.4663 24.517 34.4551 24.7003 34.4272 24.8814C33.8455 26.3063 33.0581 27.6382 32.0902 28.8349C31.7841 29.2295 31.4479 29.6 31.0847 29.9429V29.4245C31.0563 28.7644 30.9707 28.108 30.8291 27.4627L30.7244 26.9735L30.54 26.2536L30.3136 25.5636C30.2124 25.2496 30.0828 24.9612 29.9661 24.6514L29.5844 23.7521L29.8571 24.6892C29.9198 24.9946 30.0081 25.3165 30.0707 25.622L30.159 26.0991L30.2466 26.8111L30.3221 27.4833C30.3765 28.1069 30.3765 28.734 30.3221 29.3575C30.2915 29.6586 30.2426 29.9575 30.1754 30.2526C30.1355 30.4036 30.0373 30.771 30.0287 30.8173C29.9447 30.8928 28.8937 31.654 28.4322 31.9431C28.2058 32.0855 27.5065 31.5244 27.2887 31.3449C26.5876 30.6569 25.9327 29.9233 25.3283 29.1489L22.1467 26.9984C22.1467 26.9984 22.0962 26.1617 23.4028 26.124C28.8944 25.973 35.2027 13.5074 34.0641 5.05719C34.0911 5.13623 42.6546 13.971 41.2539 26.6844Z" fill="#009032"/>
<path d="M6.61022 22.2504C7.12149 22.192 7.60285 22.694 7.68261 23.3712C7.75004 23.6531 7.70628 23.9502 7.56041 24.2006C7.41455 24.4511 7.17779 24.6358 6.89932 24.7163C6.38378 24.7811 5.91025 24.2641 5.81839 23.5869C5.75008 23.3049 5.79462 23.0073 5.94254 22.7577C6.09045 22.508 6.33004 22.326 6.61022 22.2504Z" fill="#69D91D"/>
<path d="M8.26362 18.489C8.8753 18.4178 9.45066 19.0288 9.54536 19.8526C9.63022 20.1906 9.58083 20.5483 9.40756 20.8507C9.23429 21.153 8.95061 21.3764 8.6161 21.474C8.003 21.5452 7.42622 20.9528 7.33009 20.1161C7.23396 19.2794 7.6548 18.5602 8.26362 18.489Z" fill="#69D91D"/>
<path d="M10.9848 15.5695C11.7389 15.4819 12.451 16.2032 12.5642 17.1844C12.6564 17.5946 12.5862 18.0245 12.3683 18.384C12.1505 18.7434 11.8019 19.0046 11.3957 19.1127C10.6459 19.201 9.92953 18.4769 9.81631 17.5027C9.72232 17.0919 9.79166 16.6606 10.0097 16.2998C10.2277 15.9391 10.5774 15.6772 10.9848 15.5695Z" fill="#69D91D"/>
<path d="M14.6599 13.1471C15.5934 13.0382 16.465 13.9297 16.6074 15.1317C16.7498 16.3336 16.109 17.3989 15.1747 17.505C14.2405 17.6111 13.3732 16.7296 13.2307 15.5162C13.0883 14.3028 13.7292 13.2553 14.6599 13.1471Z" fill="#69D91D"/>
<path d="M23.9565 18.5937C23.9191 18.6675 23.8544 18.7237 23.7762 18.7503C23.6979 18.777 23.6123 18.7719 23.5378 18.7361C23.5145 18.7257 23.493 18.7115 23.4744 18.6941C22.7583 18.0278 21.9132 17.5152 20.9914 17.1881C20.059 16.9274 19.0805 16.8761 18.126 17.0378C18.073 17.05 18.0174 17.0406 17.9713 17.0118C17.9253 16.9829 17.8925 16.937 17.8803 16.884V16.8783C17.8808 16.871 17.8808 16.8636 17.8803 16.8563C17.844 16.6974 17.8162 16.5367 17.797 16.3749C17.5328 14.1005 18.7811 12.0854 20.5784 11.8881C22.3757 11.6909 24.059 13.3564 24.3481 15.6194C24.4718 16.628 24.337 17.6515 23.9565 18.5937Z" fill="#69D91D"/>
<path d="M41.2561 26.6844C41.0532 28.5933 40.4994 30.4483 39.6226 32.156C38.2056 34.9737 36.0276 37.3381 33.3356 38.9812C30.6435 40.6244 27.545 41.4806 24.3913 41.4529C21.9905 41.4123 19.6254 40.8651 17.4507 39.8472C15.2761 38.8293 13.3409 37.3637 11.7718 35.5462C9.84209 33.3331 8.07471 29.7399 8.25487 27.0333C8.37004 25.0242 9.19881 23.1222 10.5919 21.67C10.7811 21.4761 11.018 21.3355 11.2788 21.2623C11.5396 21.189 11.8151 21.1857 12.0776 21.2527C12.3401 21.3196 12.5803 21.4545 12.7741 21.6438C12.9679 21.833 13.1085 22.07 13.1817 22.3308C13.2444 22.5444 13.2957 22.7779 13.3626 22.9716C13.547 23.532 13.7186 24.0924 13.9323 24.645C13.8354 24.8287 13.7343 24.9925 13.6346 25.1762C13.4331 25.5693 13.248 25.9673 13.0842 26.3811C12.7592 27.1883 12.5295 28.0307 12.3999 28.8911C12.2573 29.7486 12.2402 30.6222 12.3493 31.4845C12.4489 32.3405 12.679 33.1762 13.0315 33.9625C12.7671 33.1515 12.626 32.3054 12.6128 31.4525C12.5955 30.6168 12.6971 29.7829 12.9147 28.9759C13.1254 28.1855 13.4194 27.4197 13.792 26.6915C13.9685 26.3454 14.1632 26.0088 14.3752 25.6832C14.5432 26.0635 14.7234 26.4444 14.9085 26.804C15.5375 28.0415 16.3115 29.1996 17.2142 30.254C17.3331 30.4007 17.4656 30.5346 17.5959 30.672C17.5624 30.7347 17.5453 30.7853 17.5119 30.8522C17.4414 31.0287 17.3852 31.2107 17.3438 31.3962C17.2595 31.7703 17.2146 32.1521 17.21 32.5355C17.2175 33.2894 17.4194 34.0286 17.796 34.6817C17.8791 34.8412 17.9728 34.9949 18.0766 35.1417C18.1812 35.2866 18.2932 35.4262 18.4119 35.5597C18.6418 35.8299 18.8925 36.0815 19.1618 36.3124C19.702 36.7694 20.2839 37.1747 20.8999 37.5229C20.3321 37.1158 19.8072 36.652 19.3334 36.1387C19.1039 35.8833 18.8924 35.6123 18.7003 35.3276C18.5992 35.198 18.5323 35.0307 18.4319 34.9096C18.3399 34.7711 18.268 34.6203 18.2183 34.4617C17.9676 33.8635 17.8697 33.2123 17.9334 32.5669C17.9704 32.2568 18.0435 31.9521 18.1513 31.659C18.1848 31.5586 18.2353 31.4753 18.2645 31.3791C18.9033 31.9696 19.5915 32.5042 20.3217 32.977C20.904 33.355 21.5163 33.6846 22.1525 33.9625C22.7117 34.2093 23.2867 34.4189 23.8736 34.5899C23.8736 34.6234 23.907 34.6404 23.9241 34.6732C23.9651 34.7361 24.0101 34.7962 24.0587 34.8534C24.1433 34.9657 24.2372 35.0707 24.3393 35.1674C24.5299 35.3653 24.7363 35.5472 24.9566 35.7114C25.3924 36.0332 25.8627 36.3054 26.3587 36.5232L26.7276 36.6699L27.11 36.8037L27.2944 36.8707L27.4788 36.9162L27.8612 37.0166C28.1126 37.0836 28.3817 37.1356 28.6295 37.184L29.4128 37.2972L28.6445 37.0992L27.8954 36.8543L27.5301 36.7033L27.3457 36.6364L26.8038 36.4064L26.4691 36.2262C26.0171 35.9778 25.5948 35.679 25.2101 35.3354C25.0484 35.1805 24.8982 35.0139 24.7608 34.837C25.8654 35.0752 26.989 35.2151 28.1183 35.255C30.842 35.2895 33.5551 34.9099 36.1647 34.1292C33.5457 34.7728 30.8444 35.0167 28.1524 34.8526C26.8257 34.7481 25.5158 34.4883 24.2495 34.0786C23.6243 33.8691 23.0145 33.6161 22.4245 33.3217L21.9759 33.0874H22.5548C23.2791 33.1012 24.0035 33.0732 24.7245 33.0034C25.4421 32.9407 26.1554 32.8358 26.8607 32.6894C27.5712 32.5389 28.272 32.3458 28.9592 32.1111C28.2684 32.288 27.5687 32.4275 26.8629 32.5291C25.4466 32.72 24.0131 32.7479 22.5904 32.6124C21.9922 32.5527 21.3979 32.4593 20.8102 32.3326C19.7404 31.5696 18.7898 30.652 17.9897 29.6096C17.7711 29.3298 17.571 29.0492 17.3687 28.7729C17.4156 28.7806 17.4608 28.796 17.5026 28.8185L18.0723 28.9695C18.8261 29.1524 19.5897 29.2919 20.3595 29.3874C20.7454 29.4209 21.1278 29.4708 21.5137 29.4879C21.7043 29.4822 21.8949 29.4934 22.0834 29.5213H23.7846C24.1712 29.5213 24.5365 29.4708 24.9175 29.4373C24.5391 29.4455 24.1607 29.4286 23.7846 29.3867L23.2149 29.3412L22.6103 29.245L22.0407 29.1781C21.8598 29.1781 21.6754 29.1112 21.4902 29.0941C21.1257 29.0435 20.7554 28.9431 20.3908 28.8805C19.6669 28.7141 18.9535 28.5046 18.2546 28.2531L17.7376 28.0651C17.5738 28.0025 17.4022 27.9184 17.2391 27.8515C17.0735 27.7792 16.9125 27.6967 16.7571 27.6044C16.6097 27.5211 16.5726 27.4207 16.4886 27.3409C16.3085 26.9934 16.1404 26.6467 15.9745 26.2992C15.452 25.1142 15.0361 23.8851 14.7319 22.6263V22.5935C14.6147 22.1215 14.6055 21.6291 14.7052 21.1531C14.8048 20.6771 15.0107 20.2297 15.3074 19.8444C15.6041 19.459 15.984 19.1456 16.4187 18.9276C16.8534 18.7096 17.3318 18.5925 17.8181 18.5852C19.2291 18.539 20.6219 18.9147 21.8182 19.6644C23.0145 20.4141 23.96 21.5036 24.5337 22.7936C25.4188 25.0858 24.7601 29.2942 28.265 30.7796C32.9319 32.6915 38.7702 31.8505 41.2561 26.6844Z" fill="#69D91D"/>
<path d="M41.2561 26.6844C41.0532 28.5933 40.4994 30.4483 39.6226 32.156C38.2056 34.9737 36.0276 37.3381 33.3356 38.9812C30.6435 40.6244 27.545 41.4806 24.3913 41.4529C21.9905 41.4123 19.6254 40.8651 17.4507 39.8472C15.2761 38.8293 13.3409 37.3637 11.7718 35.5462C9.84209 33.3331 8.07471 29.7399 8.25487 27.0333C8.37004 25.0242 9.19881 23.1222 10.5919 21.67C10.7811 21.4761 11.018 21.3355 11.2788 21.2623C11.5396 21.189 11.8151 21.1857 12.0776 21.2527C12.3401 21.3196 12.5803 21.4545 12.7741 21.6438C12.9679 21.833 13.1085 22.07 13.1817 22.3308C13.2444 22.5444 13.2957 22.7779 13.3626 22.9716C13.547 23.532 13.7186 24.0924 13.9323 24.645C13.8354 24.8287 13.7343 24.9925 13.6346 25.1762C13.4331 25.5693 13.248 25.9673 13.0842 26.3811C12.7592 27.1883 12.5295 28.0307 12.3999 28.8911C12.2573 29.7486 12.2402 30.6222 12.3493 31.4845C12.4489 32.3405 12.679 33.1762 13.0315 33.9625C12.7671 33.1515 12.626 32.3054 12.6128 31.4525C12.5955 30.6168 12.6971 29.7829 12.9147 28.9759C13.1254 28.1855 13.4194 27.4197 13.792 26.6915C13.9685 26.3454 14.1632 26.0088 14.3752 25.6832C14.5432 26.0635 14.7234 26.4444 14.9085 26.804C15.5375 28.0415 16.3115 29.1996 17.2142 30.254C17.3331 30.4007 17.4656 30.5346 17.5959 30.672C17.5624 30.7347 17.5453 30.7853 17.5119 30.8522C17.4414 31.0287 17.3852 31.2107 17.3438 31.3962C17.2595 31.7703 17.2146 32.1521 17.21 32.5355C17.2175 33.2894 17.4194 34.0286 17.796 34.6817C17.8791 34.8412 17.9728 34.9949 18.0766 35.1417C18.1812 35.2866 18.2932 35.4262 18.4119 35.5597C18.6418 35.8299 18.8925 36.0815 19.1618 36.3124C19.702 36.7694 20.2839 37.1747 20.8999 37.5229C20.3321 37.1158 19.8072 36.652 19.3334 36.1387C19.1039 35.8833 18.8924 35.6123 18.7003 35.3276C18.5992 35.198 18.5323 35.0307 18.4319 34.9096C18.3399 34.7711 18.268 34.6203 18.2183 34.4617C17.9676 33.8635 17.8697 33.2123 17.9334 32.5669C17.9704 32.2568 18.0435 31.9521 18.1513 31.659C18.1848 31.5586 18.2353 31.4753 18.2645 31.3791C18.9033 31.9696 19.5915 32.5042 20.3217 32.977C20.904 33.355 21.5163 33.6846 22.1525 33.9625C22.7117 34.2093 23.2867 34.4189 23.8736 34.5899C23.8736 34.6234 23.907 34.6404 23.9241 34.6732C23.9651 34.7361 24.0101 34.7962 24.0587 34.8534C24.1433 34.9657 24.2372 35.0707 24.3393 35.1674C24.5299 35.3653 24.7363 35.5472 24.9566 35.7114C25.3924 36.0332 25.8627 36.3054 26.3587 36.5232L26.7276 36.6699L27.11 36.8037L27.2944 36.8707L27.4788 36.9162L27.8612 37.0166C28.1126 37.0836 28.3817 37.1356 28.6295 37.184L29.4128 37.2972L28.6445 37.0992L27.8954 36.8543L27.5301 36.7033L27.3457 36.6364L26.8038 36.4064L26.4691 36.2262C26.0171 35.9778 25.5948 35.679 25.2101 35.3354C25.0484 35.1805 24.8982 35.0139 24.7608 34.837C25.8654 35.0752 26.989 35.2151 28.1183 35.255C30.842 35.2895 33.5551 34.9099 36.1647 34.1292C33.5457 34.7728 30.8444 35.0167 28.1524 34.8526C26.8257 34.7481 25.5158 34.4883 24.2495 34.0786C23.6243 33.8691 23.0145 33.6161 22.4245 33.3217L21.9759 33.0874H22.5548C23.2791 33.1012 24.0035 33.0732 24.7245 33.0034C25.4421 32.9407 26.1554 32.8358 26.8607 32.6894C27.5712 32.5389 28.272 32.3458 28.9592 32.1111C28.2684 32.288 27.5687 32.4275 26.8629 32.5291C25.4466 32.72 24.0131 32.7479 22.5904 32.6124C21.9922 32.5527 21.3979 32.4593 20.8102 32.3326C19.7404 31.5696 18.7898 30.652 17.9897 29.6096C17.7711 29.3298 17.571 29.0492 17.3687 28.7729C17.4156 28.7806 17.4608 28.796 17.5026 28.8185L18.0723 28.9695C18.8261 29.1524 19.5897 29.2919 20.3595 29.3874C20.7454 29.4209 21.1278 29.4708 21.5137 29.4879C21.7043 29.4822 21.8949 29.4934 22.0834 29.5213H23.7846C24.1712 29.5213 24.5365 29.4708 24.9175 29.4373C24.5391 29.4455 24.1607 29.4286 23.7846 29.3867L23.2149 29.3412L22.6103 29.245L22.0407 29.1781C21.8598 29.1781 21.6754 29.1112 21.4902 29.0941C21.1257 29.0435 20.7554 28.9431 20.3908 28.8805C19.6669 28.7141 18.9535 28.5046 18.2546 28.2531L17.7376 28.0651C17.5738 28.0025 17.4022 27.9184 17.2391 27.8515C17.0735 27.7792 16.9125 27.6967 16.7571 27.6044C16.6097 27.5211 16.5726 27.4207 16.4886 27.3409C16.3085 26.9934 16.1404 26.6467 15.9745 26.2992C15.452 25.1142 15.0361 23.8851 14.7319 22.6263V22.5935C14.6147 22.1215 14.6055 21.6291 14.7052 21.1531C14.8048 20.6771 15.0107 20.2297 15.3074 19.8444C15.6041 19.459 15.984 19.1456 16.4187 18.9276C16.8534 18.7096 17.3318 18.5925 17.8181 18.5852C19.2291 18.539 20.6219 18.9147 21.8182 19.6644C23.0145 20.4141 23.96 21.5036 24.5337 22.7936C25.4188 25.0858 24.7601 29.2942 28.265 30.7796C32.9319 32.6915 38.7702 31.8505 41.2561 26.6844Z" fill="#69D91D"/>
<path d="M46.8027 33.223L46.998 31.4082C47.4444 31.492 47.9187 31.5478 48.3929 31.5757C50.29 31.5757 50.9875 30.2635 50.9875 28.672V13.7346H52.9403V28.672C52.9403 31.2407 51.6849 33.4464 48.3929 33.4464C47.8629 33.4185 47.3328 33.3347 46.8027 33.223Z" fill="#116032"/>
<path d="M64.7972 22.1385L57.3763 25.4611C58.2132 26.885 60.0266 27.3596 61.4494 26.522C62.5375 26.1032 63.3186 25.126 63.4581 23.9534L65.2157 23.8417C65.0762 25.7403 63.8766 27.4155 62.119 28.1135C59.4965 29.2582 56.4277 28.0577 55.256 25.4331C54.1122 22.8366 55.256 19.8212 57.8226 18.6206C60.3893 17.4759 63.1512 18.4251 64.4624 21.3009C64.574 21.6081 64.6856 21.8873 64.7972 22.1385ZM62.4817 21.4126C61.7005 20.0445 59.9708 19.542 58.5759 20.2679C57.0415 20.7984 56.2603 22.4736 56.7625 23.9813L62.4817 21.4126Z" fill="#116032"/>
<path d="M64.3228 31.5756H65.4388C67.0847 31.5756 67.3079 30.1796 67.28 29.0348V18.481H69.1213V29.0348C69.1213 31.5198 68.2286 33.3067 65.5782 33.3067H64.2949L64.3228 31.5756ZM66.9453 14.7955C66.9732 14.0975 67.559 13.5391 68.2565 13.5391C68.9539 13.567 69.484 14.1533 69.4561 14.8513C69.4282 15.5493 68.8423 16.0798 68.1449 16.0519C67.4753 16.024 66.9453 15.4656 66.9453 14.7955Z" fill="#116032"/>
<path d="M81.8978 18.481V28.4764H80.0565V26.885C79.2753 28.0576 77.9083 28.7277 76.5134 28.6719C73.6399 28.5602 71.408 26.1311 71.5196 23.2553C71.6312 20.5471 73.7794 18.3693 76.4855 18.2576C77.9083 18.1738 79.2753 18.8439 80.0286 20.0445V18.5089L81.8978 18.481ZM80.0565 23.4229C80.0844 21.5522 78.6058 20.0166 76.7366 19.9887C76.7087 19.9887 76.6808 19.9887 76.6529 19.9887C74.8395 19.9887 73.3888 21.4684 73.3888 23.2553C73.3888 23.3112 73.3888 23.367 73.3888 23.4229C73.3051 25.2656 74.7279 26.8291 76.5692 26.9129C78.4105 26.9967 79.9728 25.5727 80.0565 23.73C80.0565 23.6462 80.0565 23.5345 80.0565 23.4229Z" fill="#116032"/>
<path d="M91.4953 28.4764L86.8921 23.5904V28.4764H85.0508V13.0644H86.8921V22.0268L90.3514 18.5089H92.9181L88.6497 22.8365L93.9503 28.5044L91.4953 28.4764Z" fill="#116032"/>
<path d="M95.8652 14.7955C95.8931 14.0975 96.479 13.5391 97.1765 13.5391C97.8739 13.5112 98.4598 14.0416 98.4877 14.7397C98.5156 15.4377 97.9855 16.024 97.288 16.0519C97.2322 16.0519 97.2044 16.0519 97.1486 16.0519C96.479 16.0798 95.8931 15.4935 95.8652 14.7955ZM96.2558 18.481H98.0971V28.4765H96.2558V18.481Z" fill="#116032"/>
<path d="M110.651 22.6969V28.4764H108.809V22.8086C108.809 21.1334 107.777 20.1003 106.41 20.1003C104.848 19.9887 103.481 21.1613 103.341 22.7528C103.341 22.8644 103.341 22.9761 103.341 23.0599V28.4764H101.5V18.481H103.341V19.9887C103.927 18.7602 105.545 18.2297 106.661 18.2297C109.144 18.2576 110.679 19.9049 110.651 22.6969Z" fill="#116032"/>
</svg>
